# xmcd
#
# Track frame offsets:
#	150
#	1471
#	7047
#	23658
#	30906
#	51818
#	64978
#	93440
#	112286
#	122914
#	146665
#	192312
#	235625
#
# Disc length: 3361 seconds
#
# Revision: 0
# Processed by: cddbd v1.5.2PL0 Copyright (c) Steve Scherf et al.
# Submitted via: EZCDAudioConverter 8.3.2.1
#
DISCID=ac0d1f0d
DTITLE=Χορός Μετοχίου Αγ. Χαραλάμπους - Παράκλησις Αγίου Χαραλάμπους
DYEAR=2020
DGENRE=Βυζ. Εκκλησιαστική
TTITLE0=Ευλογητός ο Θεός
TTITLE1=Κύριε εισάκουσον
TTITLE2=Θεός Κύριος
TTITLE3=Ν' ψαλμός
TTITLE4=Ωδαί α', γ'
TTITLE5=Αίτησις, Χριστού αθλητά
TTITLE6=Ωδαί δ', ε', στ'
TTITLE7=Αίτησις, Ιατρέ της ψυχής και του σώματος
TTITLE8=Ευαγγέλιον
TTITLE9=Δόξα, και νυν, Σώσον ο Θεός τον λαόν σου
TTITLE10=Ωδαί ζ', η', θ', Άξιον εστί, Μαγαλυνάρια
TTITLE11=Τρισάγιον, Απολυτίκια, Δέησις, Απόλυσις
TTITLE12=Μάρτυς καρτερώτατε Χριστού, Δι' ευχών
EXTD=
EXTT0=
EXTT1=
EXTT2=
EXTT3=
EXTT4=
EXTT5=
EXTT6=
EXTT7=
EXTT8=
EXTT9=
EXTT10=
EXTT11=
EXTT12=
PLAYORDER=
